<svg data-v-fde0c5aa="" xmlns="http://www.w3.org/2000/svg" viewBox="0 0 300 300" class="font"><!----><defs data-v-fde0c5aa=""><!----></defs><rect data-v-fde0c5aa="" fill="transparent" x="0" y="0" width="300px" height="300px" class="logo-background-square"></rect><defs data-v-fde0c5aa=""><linearGradient data-v-fde0c5aa="" gradientTransform="rotate(25)" id="32b9ed41-1c79-4e02-973f-846023fe56d6" x1="0%" y1="0%" x2="100%" y2="0%"><stop data-v-fde0c5aa="" offset="0%" stop-color="#000A68" stop-opacity="1"></stop><stop data-v-fde0c5aa="" offset="100%" stop-color="#00C4EE" stop-opacity="1"></stop></linearGradient></defs><g data-v-fde0c5aa="" id="8de4649e-aee4-4bf3-bf9a-46adb7ce91da" fill="url(#32b9ed41-1c79-4e02-973f-846023fe56d6)" transform="matrix(5.294825122538533,0,0,5.294825122538533,35.022864081841455,106.05295047302242)"><path d="M5.00 14.18Q3.70 14.18 2.44 13.44L2.44 13.44L1.25 14.04L0.94 14.04L0.94 10.44L1.25 10.44L2.45 13.05Q3.61 13.87 5.11 13.87L5.11 13.87Q6.34 13.87 7.15 13.22Q7.95 12.57 7.95 11.40L7.95 11.40Q7.95 10.54 7.43 10.05Q6.92 9.55 5.75 9.25L5.75 9.25L3.43 8.65Q2.21 8.33 1.60 7.55Q0.98 6.78 0.98 5.71L0.98 5.71Q0.98 4.75 1.36 4.00Q1.75 3.25 2.49 2.84Q3.23 2.42 4.26 2.42L4.26 2.42Q5.53 2.42 6.54 2.86L6.54 2.86L7.56 2.42L7.87 2.42L7.87 5.28L7.56 5.28L6.55 3.23Q5.50 2.73 4.27 2.73L4.27 2.73Q3.05 2.73 2.35 3.35Q1.65 3.98 1.65 5.00L1.65 5.00Q1.65 5.75 2.15 6.19Q2.65 6.62 3.61 6.87L3.61 6.87L6.12 7.53Q7.34 7.84 7.93 8.59Q8.53 9.34 8.53 10.86L8.53 10.86Q8.53 12.42 7.57 13.30Q6.61 14.18 5.00 14.18L5.00 14.18ZM12.01 14.04Q11.12 14.04 10.54 13.57Q9.97 13.10 9.97 12.18L9.97 12.18Q9.97 10.86 11.07 10.31Q12.18 9.76 13.64 9.76L13.64 9.76L14.57 9.76L14.57 8.68Q14.57 7.95 14.41 7.55Q14.25 7.15 13.92 6.99Q13.58 6.83 13.01 6.83L13.01 6.83Q12.35 6.83 12.03 7.09Q11.70 7.35 11.70 7.78L11.70 7.78Q11.70 8.19 12.10 8.32L12.10 8.32Q12.10 8.67 11.83 8.93Q11.56 9.20 11.20 9.20L11.20 9.20Q10.81 9.20 10.57 8.98Q10.33 8.76 10.33 8.32L10.33 8.32Q10.33 7.50 11.14 7.01Q11.96 6.52 13.17 6.52L13.17 6.52Q15.97 6.52 15.97 8.96L15.97 8.96L15.97 12.96Q15.97 13.27 16.11 13.43Q16.24 13.59 16.49 13.59L16.49 13.59Q16.73 13.59 16.87 13.43Q17.01 13.27 17.01 12.99L17.01 12.99L17.30 12.99Q17.30 13.48 16.99 13.76Q16.67 14.04 16.11 14.04L16.11 14.04Q15.47 14.04 15.03 13.67Q14.59 13.30 14.57 12.52L14.57 12.52Q14.24 13.23 13.54 13.64Q12.85 14.04 12.01 14.04L12.01 14.04ZM12.78 13.43Q13.16 13.43 13.56 13.20Q13.96 12.98 14.24 12.55Q14.52 12.12 14.57 11.52L14.57 11.52L14.57 10.07L13.64 10.07Q12.49 10.07 11.92 10.58Q11.35 11.09 11.35 12.01L11.35 12.01Q11.35 12.78 11.72 13.10Q12.08 13.43 12.78 13.43L12.78 13.43ZM17.64 13.90L17.64 13.62L18.62 13.48L18.62 7.07L17.64 6.93L17.64 6.65L18.62 6.65L18.62 5.47Q18.62 4.13 19.17 3.35Q19.71 2.56 21.03 2.56L21.03 2.56Q21.85 2.56 22.39 2.96Q22.93 3.36 22.93 4.05L22.93 4.05Q22.93 4.47 22.70 4.73Q22.47 5.00 22.08 5.00L22.08 5.00Q21.73 5.00 21.46 4.73Q21.20 4.47 21.20 4.12L21.20 4.12Q21.67 3.98 21.67 3.46L21.67 3.46Q21.67 3.22 21.48 3.04Q21.29 2.87 21.03 2.87L21.03 2.87Q20.48 2.87 20.25 3.38Q20.02 3.89 20.02 5.04L20.02 5.04L20.02 6.65L21.84 6.65L21.84 6.93L20.02 7.07L20.02 13.48L21.69 13.62L21.69 13.90L17.64 13.90ZM24.71 14.04Q23.81 14.04 23.24 13.57Q22.67 13.10 22.67 12.18L22.67 12.18Q22.67 10.86 23.77 10.31Q24.88 9.76 26.33 9.76L26.33 9.76L27.27 9.76L27.27 8.68Q27.27 7.95 27.11 7.55Q26.95 7.15 26.61 6.99Q26.28 6.83 25.70 6.83L25.70 6.83Q25.05 6.83 24.72 7.09Q24.40 7.35 24.40 7.78L24.40 7.78Q24.40 8.19 24.79 8.32L24.79 8.32Q24.79 8.67 24.53 8.93Q24.26 9.20 23.90 9.20L23.90 9.20Q23.51 9.20 23.27 8.98Q23.03 8.76 23.03 8.32L23.03 8.32Q23.03 7.50 23.84 7.01Q24.65 6.52 25.87 6.52L25.87 6.52Q28.67 6.52 28.67 8.96L28.67 8.96L28.67 12.96Q28.67 13.27 28.80 13.43Q28.94 13.59 29.19 13.59L29.19 13.59Q29.43 13.59 29.57 13.43Q29.71 13.27 29.71 12.99L29.71 12.99L30.00 12.99Q30.00 13.48 29.69 13.76Q29.37 14.04 28.81 14.04L28.81 14.04Q28.17 14.04 27.73 13.67Q27.29 13.30 27.27 12.52L27.27 12.52Q26.94 13.23 26.24 13.64Q25.55 14.04 24.71 14.04L24.71 14.04ZM25.48 13.43Q25.86 13.43 26.26 13.20Q26.66 12.98 26.94 12.55Q27.22 12.12 27.27 11.52L27.27 11.52L27.27 10.07L26.33 10.07Q25.19 10.07 24.62 10.58Q24.05 11.09 24.05 12.01L24.05 12.01Q24.05 12.78 24.42 13.10Q24.78 13.43 25.48 13.43L25.48 13.43ZM33.67 13.90L30.24 13.90L30.24 13.62L31.29 13.48L31.29 3.12L30.24 2.98L30.24 2.70L32.69 2.70L32.69 13.48L33.67 13.62L33.67 13.90ZM38.96 14.18Q37.66 14.18 36.40 13.44L36.40 13.44L35.21 14.04L34.90 14.04L34.90 10.44L35.21 10.44L36.41 13.05Q37.58 13.87 39.07 13.87L39.07 13.87Q40.31 13.87 41.11 13.22Q41.92 12.57 41.92 11.40L41.92 11.40Q41.92 10.54 41.40 10.05Q40.88 9.55 39.72 9.25L39.72 9.25L37.39 8.65Q36.18 8.33 35.56 7.55Q34.94 6.78 34.94 5.71L34.94 5.71Q34.94 4.75 35.33 4.00Q35.71 3.25 36.46 2.84Q37.20 2.42 38.22 2.42L38.22 2.42Q39.49 2.42 40.50 2.86L40.50 2.86L41.52 2.42L41.83 2.42L41.83 5.28L41.52 5.28L40.52 3.23Q39.47 2.73 38.23 2.73L38.23 2.73Q37.02 2.73 36.32 3.35Q35.62 3.98 35.62 5.00L35.62 5.00Q35.62 5.75 36.11 6.19Q36.61 6.62 37.58 6.87L37.58 6.87L40.08 7.53Q41.30 7.84 41.89 8.59Q42.49 9.34 42.49 10.86L42.49 10.86Q42.49 12.42 41.53 13.30Q40.57 14.18 38.96 14.18L38.96 14.18Z"></path></g><!----><!----></svg>